<?xml version="1.0" encoding="UTF-8" standalone="no"?>
<!-- Created with Inkscape (http://www.inkscape.org/) -->

<svg
   xmlns:dc="http://purl.org/dc/elements/1.1/"
   xmlns:cc="http://creativecommons.org/ns#"
   xmlns:rdf="http://www.w3.org/1999/02/22-rdf-syntax-ns#"
   xmlns:svg="http://www.w3.org/2000/svg"
   xmlns="http://www.w3.org/2000/svg"
   xmlns:sodipodi="http://sodipodi.sourceforge.net/DTD/sodipodi-0.dtd"
   xmlns:inkscape="http://www.inkscape.org/namespaces/inkscape"
   width="114"
   height="48"
   viewBox="0 0 30.162499 12.7"
   version="1.1"
   id="svg920"
   inkscape:version="0.92.4 (unknown)"
   sodipodi:docname="logo_green.svg">
  <defs
     id="defs914" />
  <sodipodi:namedview
     id="base"
     pagecolor="#ffffff"
     bordercolor="#666666"
     borderopacity="1.0"
     inkscape:pageopacity="0.0"
     inkscape:pageshadow="2"
     inkscape:zoom="3.475263"
     inkscape:cx="46.134514"
     inkscape:cy="22.884916"
     inkscape:document-units="mm"
     inkscape:current-layer="g96"
     showgrid="false"
     units="px"
     showguides="false"
     inkscape:window-width="1366"
     inkscape:window-height="704"
     inkscape:window-x="0"
     inkscape:window-y="27"
     inkscape:window-maximized="1">
    <sodipodi:guide
       position="-370.41665,306.91668"
       orientation="-0.70710678,0.70710678"
       id="guide1578"
       inkscape:locked="false" />
  </sodipodi:namedview>
  <metadata
     id="metadata917">
    <rdf:RDF>
      <cc:Work
         rdf:about="">
        <dc:format>image/svg+xml</dc:format>
        <dc:type
           rdf:resource="http://purl.org/dc/dcmitype/StillImage" />
        <dc:title />
      </cc:Work>
    </rdf:RDF>
  </metadata>
  <g
     inkscape:label="Camada 1"
     inkscape:groupmode="layer"
     id="layer1"
     transform="translate(0,-284.29998)">
    <g
       transform="matrix(0.26458333,0,0,0.26458333,-346.36126,-140.9454)"
       id="g96">
      <path
         inkscape:connector-curvature="0"
         class="st4"
         d="m 1336.6959,1642.5923 c 0.1109,-0.2221 0.2268,-0.4719 0.347,-0.7493 0.1201,-0.2774 0.231,-0.5783 0.3334,-0.9026 l 0.347,-0.8449 c -0.1538,-0.2304 -0.31,-0.4802 -0.4688,-0.7492 -0.1587,-0.2691 -0.3015,-0.544 -0.43,-0.8256 -0.1286,-0.2816 -0.2336,-0.5632 -0.3142,-0.8448 -0.082,-0.2816 -0.1218,-0.5548 -0.1218,-0.8196 0,-0.017 0.066,-0.032 0.1991,-0.045 0.1327,-0.013 0.299,-0.024 0.5006,-0.032 0.2008,-0.01 0.4192,-0.015 0.6544,-0.019 0.2352,0 0.4536,-0.01 0.6543,-0.013 0.2008,0 0.4343,-0.011 0.6997,-0.019 0.1966,-0.5121 0.389,-0.999 0.578,-1.4599 0.1881,-0.461 0.3763,-0.9262 0.5644,-1.3955 0.1882,-0.4693 0.3764,-0.9496 0.5645,-1.4407 0.1882,-0.4911 0.3763,-1.0183 0.5645,-1.5815 0.3595,-1.0585 0.7098,-1.9888 1.0525,-2.7909 0.3419,-0.8021 0.6628,-1.5497 0.9626,-2.2403 0.034,-0.085 0.092,-0.1642 0.1731,-0.2371 0.082,-0.072 0.1688,-0.1341 0.2629,-0.1861 0.094,-0.051 0.1865,-0.094 0.2764,-0.1282 0.09,-0.034 0.1604,-0.06 0.2116,-0.077 0.034,-0.01 0.1647,-0.047 0.3915,-0.1157 0.2268,-0.068 0.4855,-0.1408 0.7761,-0.2179 0.2907,-0.077 0.5796,-0.145 0.8661,-0.2045 0.2864,-0.059 0.5149,-0.09 0.6862,-0.09 h 0.231 c 0.137,0 0.2672,0.032 0.3915,0.096 0.1235,0.064 0.2075,0.1902 0.2503,0.378 0.4108,1.0501 0.8492,2.1958 1.3154,3.4379 0.4662,1.2421 0.9215,2.6099 1.3667,4.1034 0.2394,0.802 0.4746,1.5622 0.7056,2.2788 0.231,0.7166 0.462,1.4172 0.693,2.0994 0.231,0.6831 0.4637,1.3661 0.6997,2.0484 0.2352,0.683 0.4771,1.387 0.7249,2.1128 0.077,0.3076 0.1563,0.5507 0.2377,0.73 0.082,0.1794 0.1563,0.3202 0.2243,0.4224 0.068,0.1023 0.1235,0.1777 0.1672,0.2238 0.043,0.047 0.064,0.096 0.064,0.1475 0,0.051 -0.082,0.1023 -0.2436,0.1534 l -2.7594,0.8959 c -0.2049,0.077 -0.4149,0.1534 -0.6291,0.2305 -0.2142,0.077 -0.415,0.145 -0.6031,0.2045 -0.1882,0.06 -0.3528,0.109 -0.4939,0.1475 -0.1412,0.039 -0.242,0.058 -0.3016,0.058 h -0.077 c -0.1201,0 -0.2049,-0.036 -0.2562,-0.1089 -0.051,-0.073 -0.086,-0.1433 -0.1025,-0.2112 -0.086,-0.2816 -0.1713,-0.5356 -0.2562,-0.7619 -0.086,-0.2263 -0.1688,-0.4525 -0.2503,-0.6788 -0.082,-0.2263 -0.1629,-0.4677 -0.2436,-0.7233 -0.082,-0.2565 -0.1604,-0.559 -0.2377,-0.9094 -0.018,-0.043 -0.064,-0.079 -0.1411,-0.1089 -0.077,-0.03 -0.1689,-0.053 -0.2764,-0.07 -0.1067,-0.017 -0.2201,-0.028 -0.3402,-0.032 -0.1201,0 -0.231,-0.01 -0.3335,-0.01 -0.325,0 -0.5879,0 -0.7895,0.01 -0.2008,0 -0.3789,0.01 -0.5326,0.013 -0.1537,0 -0.3016,0.01 -0.4427,0.013 -0.1411,0 -0.3141,0.01 -0.5199,0.01 -0.2487,0 -0.5024,0 -0.7636,-0.01 -0.2612,0 -0.4981,-0.011 -0.7123,-0.019 l -0.7316,-0.026 c -0.2226,0.6144 -0.4452,1.191 -0.667,1.7282 -0.2226,0.5381 -0.462,1.0929 -0.7182,1.6645 -0.018,0.068 -0.058,0.1232 -0.1218,0.1668 -0.064,0.043 -0.1302,0.064 -0.1991,0.064 -0.051,0 -0.082,0 -0.09,-0.013 -0.8299,-0.2992 -1.5271,-0.5934 -2.0915,-0.8834 -0.5645,-0.29 -1.0576,-0.5682 -1.4768,-0.8414 z m 8.6495,-11.5106 c -0.205,0.7602 -0.4083,1.4491 -0.6099,2.0676 -0.2007,0.6194 -0.3847,1.1675 -0.5518,1.6452 -0.1672,0.4786 -0.31,0.8817 -0.4301,1.2102 -0.1201,0.3286 -0.205,0.5825 -0.2571,0.7619 v 0.1156 c 0,0.051 0,0.085 -0.013,0.1023 h 3.0803 c -0.094,-0.4182 -0.1949,-0.8406 -0.3016,-1.2672 -0.1075,-0.4266 -0.2116,-0.875 -0.3141,-1.3443 -0.1025,-0.4694 -0.205,-0.9731 -0.3083,-1.5112 -0.1025,-0.538 -0.2007,-1.1314 -0.2948,-1.7801 z"
         id="path52"
         style="fill:#79db8f;stroke-width:0.08390503;fill-opacity:1" />
      <path
         inkscape:connector-curvature="0"
         class="st4"
         d="m 1364.8929,1634.2146 c -0.01,0.5137 -0.055,0.9738 -0.1478,1.3803 -0.093,0.4065 -0.2243,0.7719 -0.3957,1.0979 -0.1705,0.3261 -0.3771,0.6186 -0.6199,0.8784 -0.2427,0.2598 -0.5199,0.5037 -0.8307,0.7308 -0.599,0.4299 -1.255,0.7543 -1.9673,0.9722 -0.7132,0.2179 -1.428,0.3269 -2.147,0.3269 -0.1202,0 -0.2378,0 -0.3545,-0.01 -0.1168,-0.01 -0.2352,-0.015 -0.3545,-0.027 l -0.2965,3.2712 -0.1529,0.2782 c -0.012,0.024 -0.1142,0.072 -0.3058,0.1433 -0.1915,0.072 -0.4309,0.1551 -0.719,0.2506 l -0.5661,0.1886 c -0.1798,0.065 -0.3386,0.1257 -0.4763,0.1793 -0.1378,0.054 -0.2663,0.1015 -0.3864,0.1434 -0.1201,0.042 -0.2369,0.073 -0.3503,0.094 -0.1142,0.021 -0.2335,0.031 -0.3595,0.031 -0.084,0 -0.1495,-0.021 -0.1974,-0.063 -0.048,-0.042 -0.072,-0.1224 -0.072,-0.2422 l 0.099,-1.5329 c 0.018,-0.3051 0.04,-0.611 0.067,-0.9186 0.027,-0.3076 0.052,-0.6587 0.076,-1.0535 l 0.1705,-2.1422 c 0.036,-0.4358 0.069,-0.8725 0.099,-1.3083 0.03,-0.4358 0.06,-0.8515 0.09,-1.2462 0.03,-0.3948 0.057,-0.7636 0.081,-1.1072 0.024,-0.3436 0.044,-0.6436 0.063,-0.9009 -0.3234,0.072 -0.5822,0.124 -0.777,0.1567 -0.1949,0.033 -0.3428,0.049 -0.4444,0.049 -0.126,0 -0.189,-0.054 -0.189,-0.1609 0.084,-0.2925 0.1613,-0.58 0.2335,-0.8607 0.066,-0.2389 0.1336,-0.4853 0.2025,-0.7392 0.069,-0.254 0.1268,-0.4677 0.1747,-0.6412 0.03,-0.1073 0.065,-0.1894 0.1033,-0.2464 0.039,-0.057 0.09,-0.1014 0.1529,-0.1341 0.063,-0.033 0.1436,-0.063 0.2427,-0.09 0.099,-0.027 0.2201,-0.065 0.3638,-0.1123 0.1134,-0.036 0.2738,-0.076 0.4804,-0.1207 0.2067,-0.045 0.4436,-0.09 0.7098,-0.1341 0.2663,-0.044 0.5553,-0.088 0.8669,-0.1299 0.3116,-0.042 0.6275,-0.079 0.9475,-0.1123 0.3201,-0.033 0.6359,-0.06 0.9475,-0.08 0.3117,-0.021 0.6048,-0.031 0.8804,-0.031 0.6829,0 1.3297,0.063 1.9403,0.1885 0.6107,0.1258 1.1466,0.3395 1.6078,0.6412 0.4612,0.3017 0.8282,0.7082 1.1004,1.2186 0.2738,0.5121 0.4099,1.1524 0.4099,1.9235 z m -6.5662,2.6886 c 0,0.066 0.012,0.124 0.036,0.1743 0.023,0.051 0.09,0.076 0.1974,0.076 0.168,0 0.3671,-0.037 0.5972,-0.1123 0.2302,-0.075 0.4612,-0.1869 0.6913,-0.3361 0.2302,-0.1492 0.4444,-0.3344 0.6426,-0.5557 0.1974,-0.2212 0.3469,-0.481 0.4494,-0.7794 0.042,-0.119 0.076,-0.2715 0.1033,-0.4568 0.027,-0.1852 0.04,-0.4031 0.04,-0.6545 0,-0.4182 -0.1454,-0.7258 -0.436,-0.9228 -0.2906,-0.1969 -0.6695,-0.2958 -1.1365,-0.2958 -0.078,0 -0.1663,0 -0.2646,0.013 -0.099,0.01 -0.1915,0.025 -0.2789,0.049 -0.086,0.024 -0.1604,0.053 -0.2201,0.085 -0.06,0.033 -0.093,0.076 -0.099,0.1299 l -0.018,0.197 c -0.01,0.078 -0.018,0.2045 -0.036,0.3805 -0.018,0.176 -0.038,0.378 -0.058,0.6051 -0.021,0.2271 -0.042,0.466 -0.063,0.7174 -0.021,0.2506 -0.042,0.4903 -0.063,0.7166 -0.021,0.2271 -0.039,0.4274 -0.054,0.6009 -0.014,0.1735 -0.025,0.2959 -0.031,0.3671 z"
         id="path54"
         style="fill:#79db8f;stroke-width:0.08390503;fill-opacity:1" />
      <path
         inkscape:connector-curvature="0"
         class="st4"
         d="m 1370.2344,1643.9927 c -0.8979,0 -1.701,-0.1676 -2.4074,-0.502 -0.7064,-0.3344 -1.3037,-0.787 -1.7917,-1.3577 -0.488,-0.5708 -0.8627,-1.2312 -1.1231,-1.9805 -0.2604,-0.7501 -0.3906,-1.5429 -0.3906,-2.3793 0,-0.9379 0.1336,-1.8028 0.3999,-2.5948 0.2662,-0.792 0.6392,-1.4935 1.118,-2.1062 0.4788,-0.6126 1.0492,-1.1289 1.7111,-1.5505 0.6619,-0.4216 1.3876,-0.7333 2.1781,-0.9362 0.072,0 0.1268,-0.057 0.1663,-0.1701 0.039,-0.1131 0.073,-0.2388 0.1033,-0.3763 0.03,-0.1374 0.065,-0.2632 0.1075,-0.3763 0.042,-0.1132 0.1017,-0.1701 0.1798,-0.1701 1.1617,0.1198 2.2067,0.3243 3.1349,0.6143 0.9282,0.29 1.7152,0.704 2.3629,1.2412 0.6468,0.5381 1.1424,1.2178 1.4868,2.0391 0.3444,0.8214 0.5166,1.8238 0.5166,3.0072 0,0.7585 -0.093,1.4734 -0.2789,2.1422 -0.1857,0.6696 -0.4461,1.2865 -0.7812,1.8505 -0.3352,0.5649 -0.7384,1.0694 -1.2079,1.5145 -0.4704,0.445 -0.9929,0.823 -1.5675,1.1339 -0.5745,0.311 -1.1936,0.5481 -1.8547,0.7124 -0.6619,0.1626 -1.3498,0.2447 -2.0622,0.2447 z m -1.7514,-6.5783 c 0,0.43 0.046,0.8616 0.1395,1.2949 0.092,0.4333 0.2469,0.823 0.4628,1.17 0.2159,0.347 0.4998,0.6278 0.8535,0.8423 0.3536,0.2154 0.7904,0.3227 1.3112,0.3227 0.4015,-0.024 0.7526,-0.1056 1.0559,-0.2464 0.3024,-0.14 0.5628,-0.3227 0.7812,-0.5465 0.2184,-0.2237 0.3998,-0.481 0.5434,-0.771 0.1437,-0.29 0.2571,-0.5942 0.3411,-0.9144 0.084,-0.3193 0.1419,-0.647 0.1755,-0.9814 0.033,-0.3344 0.05,-0.6571 0.05,-0.968 0,-0.4241 -0.057,-0.8348 -0.1705,-1.2321 -0.1134,-0.3972 -0.2848,-0.7484 -0.5116,-1.0535 -0.2276,-0.305 -0.5107,-0.5498 -0.8492,-0.735 -0.3385,-0.1852 -0.7325,-0.2782 -1.1811,-0.2782 -0.3536,0 -0.6719,0.066 -0.9567,0.1969 -0.2848,0.1316 -0.5376,0.3068 -0.7594,0.5247 -0.2217,0.2179 -0.4116,0.4693 -0.5703,0.7526 -0.1588,0.2841 -0.2907,0.5766 -0.3957,0.8783 -0.105,0.3018 -0.1831,0.6035 -0.2335,0.9052 -0.051,0.3026 -0.08,0.5816 -0.086,0.8389 z"
         id="path56"
         style="fill:#79db8f;stroke-width:0.08390503;fill-opacity:1" />
      <path
         inkscape:connector-curvature="0"
         class="st4"
         d="m 1385.8525,1631.5167 c 0.048,-0.197 0.09,-0.3403 0.126,-0.43 0.036,-0.09 0.1134,-0.1491 0.2335,-0.1793 l 2.3268,-0.5465 c 0.072,-0.023 0.1495,-0.036 0.2335,-0.036 0.078,0 0.1344,0.027 0.1705,0.081 0.036,0.054 0.054,0.155 0.054,0.305 -0.036,0.1433 -0.066,0.3629 -0.09,0.6588 -0.024,0.2958 -0.042,0.6202 -0.054,0.9722 -0.012,0.3528 -0.021,0.7065 -0.027,1.0619 -0.01,0.3553 -0.01,0.6646 -0.01,0.9277 v 0.4929 c 0,0.3704 0,0.7735 -0.01,1.2102 -0.01,0.4366 -0.014,0.8783 -0.023,1.3267 -0.01,0.4484 -0.019,0.8901 -0.032,1.3267 -0.012,0.4358 -0.024,0.8457 -0.036,1.2279 l -0.054,1.5328 c -0.01,0.03 -0.01,0.057 -0.01,0.081 0,0.024 0,0.048 0,0.072 v 0.1341 c 0,0.1014 0,0.1869 0,0.2556 0,0.069 0,0.1299 0,0.1835 0,0.06 0,0.1132 -0.014,0.161 -0.01,0.048 -0.031,0.094 -0.067,0.1391 -0.036,0.045 -0.086,0.091 -0.1478,0.1391 -0.063,0.048 -0.1479,0.1073 -0.2562,0.1794 -0.06,0.042 -0.1588,0.1031 -0.2965,0.1835 -0.1378,0.08 -0.2907,0.1718 -0.4578,0.2732 -0.168,0.1014 -0.3411,0.2062 -0.5208,0.3135 -0.1798,0.1073 -0.3444,0.2045 -0.494,0.2917 -0.1495,0.086 -0.3175,0.1835 -0.5031,0.2916 l -4.1681,-6.3998 -0.3771,5.2432 c -0.01,0.048 -0.017,0.099 -0.032,0.1526 -0.015,0.054 -0.055,0.095 -0.121,0.1257 -0.054,0.024 -0.147,0.061 -0.2789,0.1123 -0.1319,0.051 -0.2864,0.1089 -0.4628,0.1751 -0.1764,0.065 -0.3621,0.1325 -0.5569,0.202 -0.1949,0.069 -0.3789,0.1316 -0.5528,0.1886 -0.1738,0.057 -0.3276,0.1031 -0.4628,0.1391 -0.1344,0.036 -0.226,0.054 -0.2738,0.054 -0.09,0 -0.1647,-0.024 -0.2243,-0.072 -0.06,-0.048 -0.09,-0.1341 -0.09,-0.2598 0.06,-0.7468 0.1285,-1.5614 0.2066,-2.4423 0.078,-0.8808 0.1529,-1.7851 0.2243,-2.7112 0.071,-0.9261 0.1395,-1.8506 0.2025,-2.7742 0.063,-0.9227 0.115,-1.8002 0.157,-2.6308 0,-0.024 -0.038,-0.1031 -0.1125,-0.2372 -0.075,-0.1341 -0.1588,-0.2807 -0.2512,-0.4391 -0.093,-0.1584 -0.1764,-0.3076 -0.2511,-0.4484 -0.075,-0.14 -0.1126,-0.2288 -0.1126,-0.264 0,-0.042 0.023,-0.081 0.067,-0.1165 0.045,-0.036 0.1184,-0.084 0.2201,-0.1433 l 2.3982,-1.3536 c 0.018,0 0.044,0 0.076,-0.01 0.033,-0.01 0.061,-0.01 0.086,-0.01 0.065,0 0.1184,0.01 0.1571,0.023 0.039,0.015 0.079,0.061 0.1209,0.1391 l 4.3571,7.8422 v -6.7149 z"
         id="path58"
         style="fill:#79db8f;stroke-width:0.08390503;fill-opacity:1" />
      <path
         inkscape:connector-curvature="0"
         class="st4"
         d="m 1391.6333,1643.8134 c 0.03,-0.4358 0.06,-0.8574 0.09,-1.2639 0.03,-0.4065 0.057,-0.8004 0.081,-1.1834 l 0.3234,-4.2307 c 0.036,-0.3227 0.066,-0.6169 0.09,-0.8826 0.024,-0.2657 0.044,-0.5255 0.059,-0.7794 0.015,-0.254 0.03,-0.5113 0.044,-0.7711 0.015,-0.2598 0.032,-0.5481 0.05,-0.8649 -0.1974,-0.01 -0.4057,-0.01 -0.6241,-0.01 -0.2184,0 -0.4477,0 -0.6871,0 h -1.7338 c -0.066,0 -0.1067,-0.025 -0.121,-0.076 -0.015,-0.05 -0.023,-0.097 -0.023,-0.1391 v -0.063 l 0.9878,-2.5906 -0.01,-0.036 c 0,-0.03 0.019,-0.055 0.059,-0.076 0.039,-0.021 0.1268,-0.037 0.2646,-0.049 0.8265,-0.048 1.627,-0.094 2.4032,-0.1391 0.7753,-0.045 1.5422,-0.085 2.2999,-0.1207 0.7577,-0.036 1.5153,-0.072 2.273,-0.1073 0.7577,-0.036 1.5372,-0.069 2.3402,-0.099 0.072,0 0.1479,0.01 0.2294,0.027 0.081,0.018 0.1209,0.084 0.1209,0.197 0,0.012 0,0.024 -0.01,0.036 -0.01,0.012 -0.01,0.024 -0.01,0.036 -0.096,0.2447 -0.1839,0.4785 -0.2646,0.6989 -0.081,0.2213 -0.1604,0.4392 -0.2377,0.6546 -0.078,0.2154 -0.157,0.4333 -0.2377,0.6546 -0.081,0.2212 -0.1697,0.4542 -0.2646,0.6989 -0.01,0.01 -0.018,0.034 -0.036,0.086 -0.018,0.051 -0.044,0.1073 -0.081,0.1702 -0.036,0.063 -0.084,0.1206 -0.1437,0.1751 -0.06,0.054 -0.1344,0.084 -0.2243,0.09 -0.03,-0.01 -0.06,-0.01 -0.09,-0.01 -0.03,0 -0.063,0 -0.099,0 h -2.3982 c -0.03,0.3051 -0.058,0.6277 -0.086,0.968 -0.027,0.3403 -0.059,0.6722 -0.094,0.9948 l -0.656,6.9999 c -0.01,0.054 -0.017,0.1073 -0.031,0.1617 -0.015,0.054 -0.055,0.093 -0.121,0.1165 l -2.5443,0.9153 c -0.066,0.023 -0.1529,0.054 -0.2604,0.09 -0.1075,0.036 -0.2125,0.054 -0.3142,0.054 -0.084,0 -0.1571,-0.021 -0.2201,-0.063 -0.063,-0.042 -0.094,-0.1198 -0.094,-0.233 v -0.036 z"
         id="path60"
         style="fill:#79db8f;stroke-width:0.08390503;fill-opacity:1" />
      <path
         inkscape:connector-curvature="0"
         class="st4"
         d="m 1398.7691,1642.5923 c 0.1109,-0.2221 0.2268,-0.4719 0.3469,-0.7493 0.1193,-0.2774 0.231,-0.5783 0.3335,-0.9026 l 0.346,-0.8449 c -0.1537,-0.2304 -0.3099,-0.4802 -0.4687,-0.7492 -0.1587,-0.2691 -0.3015,-0.544 -0.43,-0.8256 -0.1286,-0.2816 -0.2336,-0.5632 -0.3142,-0.8448 -0.082,-0.2816 -0.1218,-0.5548 -0.1218,-0.8196 0,-0.017 0.066,-0.032 0.1991,-0.045 0.1327,-0.013 0.299,-0.024 0.5006,-0.032 0.2008,-0.01 0.4192,-0.015 0.6544,-0.019 0.2352,0 0.4536,-0.01 0.6543,-0.013 0.2008,0 0.4343,-0.011 0.6997,-0.019 0.1966,-0.5121 0.389,-0.999 0.578,-1.4599 0.1881,-0.461 0.3763,-0.9262 0.5644,-1.3955 0.1882,-0.4693 0.3764,-0.9496 0.5645,-1.4407 0.1882,-0.4911 0.3763,-1.0183 0.5645,-1.5815 0.3595,-1.0585 0.7098,-1.9888 1.0525,-2.7909 0.3419,-0.8021 0.6628,-1.5497 0.9626,-2.2403 0.034,-0.085 0.092,-0.1642 0.1731,-0.2371 0.082,-0.072 0.1688,-0.1341 0.2629,-0.1861 0.094,-0.051 0.1865,-0.094 0.2764,-0.1282 0.09,-0.034 0.1604,-0.06 0.2116,-0.077 0.034,-0.01 0.1647,-0.047 0.3915,-0.1157 0.2268,-0.068 0.4855,-0.1408 0.7761,-0.2179 0.2907,-0.077 0.5796,-0.145 0.8661,-0.2045 0.2864,-0.059 0.5149,-0.09 0.6862,-0.09 h 0.231 c 0.137,0 0.2672,0.032 0.3915,0.096 0.1235,0.064 0.2075,0.1902 0.2503,0.378 0.4107,1.0501 0.8492,2.1958 1.3154,3.4379 0.4662,1.2421 0.9215,2.6099 1.3667,4.1034 0.2394,0.802 0.4746,1.5622 0.7056,2.2788 0.231,0.7166 0.462,1.4172 0.693,2.0994 0.231,0.6831 0.4637,1.3661 0.6997,2.0484 0.2352,0.683 0.4771,1.387 0.7249,2.1128 0.077,0.3076 0.1563,0.5507 0.2377,0.73 0.082,0.1794 0.1563,0.3202 0.2243,0.4224 0.068,0.1023 0.1235,0.1777 0.1672,0.2238 0.043,0.047 0.064,0.096 0.064,0.1475 0,0.051 -0.082,0.1023 -0.2436,0.1534 l -2.7594,0.8959 c -0.2049,0.077 -0.4149,0.1534 -0.6291,0.2305 -0.2142,0.077 -0.415,0.145 -0.6031,0.2045 -0.1882,0.06 -0.3528,0.109 -0.494,0.1475 -0.1411,0.039 -0.2419,0.058 -0.3015,0.058 h -0.077 c -0.1201,0 -0.205,-0.036 -0.2562,-0.1089 -0.051,-0.073 -0.086,-0.1433 -0.1025,-0.2112 -0.086,-0.2816 -0.1713,-0.5356 -0.2562,-0.7619 -0.086,-0.2263 -0.1688,-0.4525 -0.2503,-0.6788 -0.082,-0.2263 -0.1629,-0.4677 -0.2436,-0.7233 -0.082,-0.2565 -0.1604,-0.559 -0.2377,-0.9094 -0.018,-0.043 -0.064,-0.079 -0.1411,-0.1089 -0.077,-0.03 -0.1689,-0.053 -0.2764,-0.07 -0.1067,-0.017 -0.2201,-0.028 -0.3402,-0.032 -0.1201,0 -0.231,-0.01 -0.3335,-0.01 -0.325,0 -0.588,0 -0.7896,0.01 -0.2007,0 -0.3788,0.01 -0.5325,0.013 -0.1537,0 -0.3016,0.01 -0.4427,0.013 -0.1411,0 -0.3141,0.01 -0.5199,0.01 -0.2487,0 -0.5024,0 -0.7636,-0.01 -0.2612,0 -0.4981,-0.011 -0.7123,-0.019 l -0.7317,-0.026 c -0.2226,0.6144 -0.4452,1.191 -0.6669,1.7282 -0.2226,0.5381 -0.462,1.0929 -0.7182,1.6645 -0.018,0.068 -0.058,0.1232 -0.1218,0.1668 -0.064,0.043 -0.1302,0.064 -0.1991,0.064 -0.051,0 -0.082,0 -0.09,-0.013 -0.8299,-0.2992 -1.5271,-0.5934 -2.0916,-0.8834 -0.5653,-0.2866 -1.0567,-0.5682 -1.4758,-0.8414 z m 8.6486,-11.5106 c -0.205,0.7602 -0.4083,1.4491 -0.6099,2.0676 -0.2007,0.6194 -0.3847,1.1675 -0.5518,1.6452 -0.1672,0.4786 -0.31,0.8817 -0.4301,1.2102 -0.1201,0.3286 -0.205,0.5825 -0.2571,0.7619 v 0.1156 c 0,0.051 0,0.085 -0.013,0.1023 h 3.0803 c -0.094,-0.4182 -0.1949,-0.8406 -0.3016,-1.2672 -0.1075,-0.4266 -0.2116,-0.875 -0.3141,-1.3443 -0.1025,-0.4694 -0.205,-0.9731 -0.3083,-1.5112 -0.1016,-0.538 -0.2008,-1.1314 -0.2948,-1.7801 z"
         id="path62"
         style="fill:#79db8f;stroke-width:0.08390503;fill-opacity:1" />
      <path
         inkscape:connector-curvature="0"
         class="st4"
         d="m 1420.0529,1621.4276 c -0.3763,0.5204 -0.6913,0.9495 -0.9433,1.2865 -0.252,0.3369 -0.4604,0.6042 -0.6225,0.8003 -0.1629,0.1962 -0.2906,0.3328 -0.3847,0.4099 -0.094,0.077 -0.1714,0.1156 -0.231,0.1156 -0.051,0 -0.094,-0.017 -0.1285,-0.051 -0.1798,-0.119 -0.3427,-0.2238 -0.488,-0.3134 -0.1454,-0.09 -0.2823,-0.171 -0.4108,-0.2431 -0.1285,-0.072 -0.2587,-0.1425 -0.3914,-0.2112 -0.1328,-0.068 -0.2806,-0.1408 -0.4427,-0.2179 -0.1201,-0.068 -0.1798,-0.1576 -0.1798,-0.269 0.01,-0.068 0.023,-0.1492 0.045,-0.2431 0.021,-0.094 0.058,-0.2129 0.1092,-0.3587 l 2.3738,-6.8758 c 0.043,-0.1199 0.086,-0.2003 0.1285,-0.2431 0.043,-0.043 0.09,-0.064 0.1411,-0.064 0.043,0 0.086,0.011 0.1286,0.032 0.043,0.022 0.086,0.045 0.1285,0.07 0.6669,0.4526 1.3322,0.8389 1.9958,1.1591 0.6628,0.3201 1.3196,0.6512 1.9698,0.9923 0.1537,0.094 0.231,0.2095 0.231,0.3461 0,0.1367 -0.073,0.3118 -0.2184,0.5247 -0.3335,0.3838 -0.6098,0.7023 -0.8274,0.9538 -0.2184,0.2522 -0.4234,0.4928 -0.6157,0.7232 -0.1924,0.2305 -0.3914,0.4736 -0.5964,0.73 -0.2066,0.2548 -0.4628,0.5708 -0.7711,0.9463 z m -3.8884,22.509 0.6418,-8.7582 c 0.2134,-2.9368 0.3721,-5.0915 0.4746,-6.466 0.1025,-1.3745 0.1537,-2.0567 0.1537,-2.0484 0.01,-0.1533 0.017,-0.2816 0.026,-0.3838 0.01,-0.1023 0.026,-0.1877 0.051,-0.2565 0.026,-0.068 0.06,-0.119 0.1025,-0.1533 0.043,-0.034 0.1066,-0.06 0.1923,-0.077 l 4.4402,-1.0628 c 0.1109,-0.034 0.2268,-0.051 0.347,-0.051 0.1192,0 0.2007,0.036 0.2436,0.109 0.043,0.073 0.064,0.2196 0.064,0.4416 -0.06,0.5297 -0.1075,1.0242 -0.1411,1.4852 -0.034,0.4609 -0.062,0.9009 -0.083,1.3192 -0.022,0.4182 -0.04,0.8213 -0.058,1.2102 -0.018,0.3889 -0.039,0.7744 -0.064,1.1591 -0.051,0.4182 -0.097,0.8364 -0.1344,1.2546 -0.039,0.4182 -0.075,0.8515 -0.1092,1.2999 -0.034,0.4484 -0.071,0.9219 -0.1092,1.4215 -0.039,0.4995 -0.083,1.0434 -0.1344,1.6326 l -0.5645,6.7476 c -0.01,0.077 -0.024,0.1517 -0.045,0.2238 -0.021,0.073 -0.079,0.1299 -0.1731,0.1726 -0.01,0 -0.06,0.018 -0.1537,0.051 -0.094,0.034 -0.2184,0.079 -0.3721,0.1341 -0.1537,0.055 -0.3335,0.1132 -0.5393,0.1727 -0.2049,0.059 -0.4233,0.1156 -0.6543,0.1668 -0.3847,0.085 -0.7207,0.1709 -1.0072,0.2564 -0.2864,0.085 -0.5409,0.1643 -0.7635,0.2372 -0.2226,0.072 -0.4276,0.1299 -0.6157,0.1727 -0.1882,0.043 -0.3764,0.064 -0.5645,0.064 -0.1285,0 -0.2352,-0.034 -0.3209,-0.1023 -0.086,-0.07 -0.1294,-0.1928 -0.1294,-0.3721 z"
         id="path64"
         style="fill:#79db8f;stroke-width:0.08390503;fill-opacity:1" />
      <path
         inkscape:connector-curvature="0"
         class="st4"
         d="m 1309.2373,1620.4059 c 0.3024,-2.102 0.9912,-4.1193 2.1336,-5.9774 0.7443,-1.2102 1.6137,-2.3157 2.6653,-3.2786 1.1601,-1.0628 2.4335,-1.9553 3.8665,-2.6074 1.9035,-0.8666 3.8984,-1.3192 5.9984,-1.3158 2.709,0 5.2046,0.735 7.513,2.1338 1.2423,0.7526 2.3377,1.6779 3.3154,2.7515 1.2314,1.3527 2.1773,2.8814 2.8619,4.5668 0.9391,2.3124 1.3053,4.7186 1.1289,7.212 -0.1554,2.2033 -0.7711,4.2709 -1.785,6.2237 -0.514,0.9907 -1.1482,1.9042 -1.8723,2.7566 -0.8098,0.9521 -1.7178,1.7994 -2.7392,2.5168 -0.7955,0.559 -1.6221,1.0736 -2.5368,1.4256 -0.1227,0.047 -0.2184,0.1199 -0.2831,0.2305 -0.4032,0.6914 -0.8114,1.3795 -1.2004,2.0785 -0.086,0.1534 -0.1906,0.2204 -0.3469,0.2422 -1.7824,0.2481 -3.5657,0.4945 -5.3482,0.7434 -1.5591,0.2171 -3.1172,0.4367 -4.6754,0.6563 -0.024,0 -0.049,0.014 -0.073,0.017 -0.1697,0.014 -0.2865,-0.033 -0.3276,-0.2238 -0.043,-0.1944 0.094,-0.243 0.2159,-0.2682 0.3242,-0.067 0.6535,-0.1156 0.9819,-0.1609 1.3969,-0.1944 2.7938,-0.3838 4.1908,-0.5766 1.5775,-0.2179 3.155,-0.4392 4.7325,-0.6529 0.1504,-0.02 0.2428,-0.066 0.3226,-0.2103 0.3023,-0.5465 0.6484,-1.0695 0.9357,-1.6243 0.2024,-0.3914 0.525,-0.6185 0.8938,-0.7979 0.882,-0.4291 1.7144,-0.9294 2.5065,-1.5119 1.0458,-0.7694 1.9538,-1.6712 2.7518,-2.6853 1.087,-1.382 1.8967,-2.9175 2.4318,-4.5895 0.3982,-1.2446 0.6552,-2.5176 0.7249,-3.831 0.066,-1.2605 -8e-4,-2.5092 -0.2234,-3.7463 -0.3016,-1.6804 -0.8719,-3.2694 -1.7094,-4.7621 -0.4402,-0.7853 -0.9467,-1.5262 -1.5187,-2.2185 -0.6905,-0.8356 -1.465,-1.589 -2.3302,-2.2469 -0.7719,-0.5876 -1.5842,-1.1139 -2.4645,-1.5237 -0.8543,-0.3981 -1.7346,-0.7183 -2.6493,-0.963 -2.1101,-0.5641 -4.2261,-0.5749 -6.3487,-0.1308 -1.4616,0.306 -2.8392,0.8432 -4.1194,1.6193 -0.4922,0.2983 -0.9802,0.6001 -1.4338,0.9554 -0.9803,0.7677 -1.8606,1.6343 -2.6217,2.6233 -0.8568,1.113 -1.5598,2.3106 -2.0781,3.6147 -0.6401,1.6109 -1.0063,3.2787 -1.097,5.0119 -0.105,2.0123 0.1856,3.9659 0.8374,5.8659 0.3923,1.144 0.9223,2.2269 1.5927,3.2385 0.388,0.5858 0.8324,1.1255 1.2633,1.6787 0.2982,0.383 0.5326,0.8255 0.7426,1.2655 0.1957,0.4107 0.4804,0.7577 0.7081,1.144 0.5317,0.901 1.0743,1.7961 1.6145,2.6929 0.2612,0.4341 0.5275,0.8657 0.7921,1.2974 0.061,0.1 0.1369,0.1994 0.1041,0.3218 -0.025,0.093 -0.1075,0.1484 -0.2024,0.1701 -0.1226,0.029 -0.2176,-0.031 -0.2764,-0.1274 -0.362,-0.5908 -0.719,-1.185 -1.076,-1.7793 -0.4334,-0.7199 -0.866,-1.4415 -1.2995,-2.1614 -0.3528,-0.5867 -0.7014,-1.1767 -1.06,-1.7601 -0.2319,-0.3779 -0.4595,-0.7551 -0.7476,-1.1029 -0.94,-1.1331 -1.6985,-2.3878 -2.268,-3.7438 -0.672,-1.6 -1.0954,-3.2661 -1.2264,-5.0027 -0.087,-1.1457 -0.039,-2.2855 0.1125,-3.4731 z"
         id="path68"
         style="fill:#79db8f;stroke-width:0.08390503;fill-opacity:1" />
      <path
         inkscape:connector-curvature="0"
         class="st4"
         d="m 1326.9352,1646.3478 c -0.055,0.1282 -0.1436,0.1919 -0.2822,0.2146 -0.9089,0.1475 -1.8153,0.3034 -2.7233,0.4534 -1.3541,0.2238 -2.7082,0.445 -4.0622,0.668 -0.3058,0.05 -0.6124,0.095 -0.9148,0.1592 -0.1999,0.043 -0.3326,0 -0.3763,-0.2095 -0.047,-0.223 0.1184,-0.2707 0.2797,-0.2984 0.6443,-0.1123 1.2903,-0.2204 1.9362,-0.3269 0.94,-0.155 1.8799,-0.3067 2.8199,-0.4618 0.9643,-0.1592 1.9278,-0.3209 2.8929,-0.4793 0.247,-0.04 0.4519,0.1 0.4301,0.2807 z"
         id="path70"
         style="fill:#79db8f;stroke-width:0.08390503;fill-opacity:1" />
      <path
         inkscape:connector-curvature="0"
         class="st4"
         d="m 1320.0052,1630.3509 c -0.098,-0.036 -0.147,-0.1031 -0.1965,-0.1718 -0.8098,-1.1055 -1.6338,-2.2001 -2.4242,-3.3181 -0.3377,-0.4777 -0.6989,-0.937 -1.0408,-1.4114 -0.5947,-0.8263 -1.197,-1.6485 -1.7968,-2.4715 -0.1058,-0.145 -0.1285,-0.2263 0.053,-0.3789 0.5972,-0.5037 1.1566,-1.051 1.7329,-1.5798 0.5334,-0.4895 1.071,-0.9747 1.6052,-1.4625 0.6334,-0.5774 1.265,-1.1557 1.8984,-1.7332 0.5225,-0.476 1.0466,-0.9512 1.5691,-1.4281 0.6149,-0.5607 1.2272,-1.1239 1.8413,-1.6846 0.5283,-0.4828 1.0584,-0.9638 1.5876,-1.4466 0.3444,-0.3134 0.693,-0.6227 1.0306,-0.9429 0.221,-0.2095 0.3234,-0.2237 0.4889,0.027 0.3856,0.5824 0.7543,1.1758 1.129,1.7658 0.3427,0.5406 0.6846,1.082 1.0264,1.6226 0.5015,0.7945 1.0013,1.5899 1.5062,2.3828 0.4107,0.6461 0.829,1.2864 1.2398,1.9326 0.4242,0.6663 0.84,1.3376 1.2642,2.0039 0.4149,0.6521 0.8366,1.3008 1.2549,1.9512 0.252,0.3922 0.5015,0.7853 0.7544,1.1767 0.094,0.1466 0.039,0.2388 -0.1134,0.2656 -0.8594,0.1551 -1.6532,0.5155 -2.4772,0.7803 -1.8513,0.5942 -3.6935,1.2161 -5.5398,1.8246 -1.6556,0.5464 -3.3146,1.0845 -4.9677,1.6401 -0.4611,0.1551 -0.9273,0.311 -1.3289,0.6043 -0.03,0.026 -0.07,0.039 -0.097,0.052 z"
         id="path72"
         style="fill:#79db8f;stroke-width:0.08390503;fill-opacity:1" />
      <path
         inkscape:connector-curvature="0"
         class="st4"
         d="m 1323.965,1635.9134 c -0.2865,-0.1785 -0.4309,-0.4794 -0.6199,-0.7375 -0.3344,-0.4568 -0.6334,-0.9387 -0.956,-1.4047 -0.6837,-0.9873 -1.37,-1.9729 -2.0613,-2.9552 -0.105,-0.1492 -0.059,-0.2346 0.082,-0.2891 0.1999,-0.077 0.4083,-0.1316 0.609,-0.2079 0.1344,-0.051 0.1814,0.037 0.2369,0.1207 0.3981,0.5993 0.8072,1.1926 1.1894,1.8011 0.2268,0.3604 0.4603,0.7174 0.6939,1.0728 0.43,0.6537 0.8668,1.3049 1.3557,1.9184 0.226,0.2833 0.1436,0.5934 -0.1856,0.7694 -0.105,-0.064 -0.2411,-0.014 -0.3444,-0.088 z"
         id="path74"
         style="fill:#79db8f;stroke-width:0.08390503;fill-opacity:1" />
      <path
         inkscape:connector-curvature="0"
         class="st4"
         d="m 1330.3985,1616.9848 c 1.0525,0.1 1.7396,1.154 1.5691,2.05 -0.038,0.2011 -0.094,0.3997 -0.21,0.5783 -0.088,0.1366 -0.1671,0.1282 -0.2436,0.01 -0.3435,-0.5288 -0.6821,-1.0602 -1.0206,-1.5915 -0.1865,-0.2934 -0.3578,-0.5968 -0.5577,-0.8809 -0.1118,-0.1584 -0.018,-0.1961 0.096,-0.2011 0.1269,0 0.2613,-0.023 0.3671,0.035 z"
         id="path76"
         style="fill:#79db8f;stroke-width:0.08390503;fill-opacity:1" />
      <path
         inkscape:connector-curvature="0"
         class="st4"
         d="m 1324.2346,1633.2097 c -0.024,0.054 -0.049,0.1542 -0.1041,0.233 -0.1193,0.1693 -0.2184,0.1542 -0.3268,-0.027 -0.1067,-0.1768 -0.226,-0.3469 -0.3301,-0.5246 -0.04,-0.067 -0.1722,-0.1207 -0.07,-0.2246 0.1075,-0.109 0.241,-0.1945 0.399,-0.1618 0.2368,0.05 0.4653,0.4107 0.4317,0.7049 z"
         id="path78"
         style="fill:#79db8f;stroke-width:0.08390503;fill-opacity:1" />
      <path
         inkscape:connector-curvature="0"
         class="st4"
         d="m 1323.965,1635.9134 c 0.1142,0.032 0.2469,-0.01 0.3452,0.089 -0.1159,-0.026 -0.2511,0.023 -0.3452,-0.089 z"
         id="path80"
         style="fill:#79db8f;stroke-width:0.08390503;fill-opacity:1" />
      <path
         inkscape:connector-curvature="0"
         class="st4"
         d="m 1329.7021,1640.2003 c 0.9316,0.166 1.6784,0.7769 2.0454,1.7969 0.273,0.7593 0.5166,1.5337 0.6073,2.3434 0.014,0.1164 0.035,0.1818 0.1899,0.1936 0.3251,0.024 0.5787,0.2078 0.6711,0.5204 0.098,0.3319 0.087,0.6956 -0.1671,0.9504 -0.1445,0.1442 -0.3915,0.1978 -0.6132,0.2355 -0.609,0.1048 -1.2197,0.2029 -1.8262,0.3177 -0.5392,0.1022 -1.0718,0.2363 -1.6111,0.3352 -0.3939,0.072 -0.777,0.096 -1.1272,-0.1994 -0.4318,-0.3646 -0.4209,-0.9002 -0.082,-1.2916 0.1487,-0.1726 0.1848,-0.3277 0.1302,-0.5355 -0.076,-0.2875 -0.1386,-0.5783 -0.1982,-0.8691 -0.031,-0.1501 -0.092,-0.1995 -0.2554,-0.1685 -0.8366,0.1559 -1.6732,0.3193 -2.5149,0.4392 -0.6502,0.093 -1.3062,0.1307 -1.9522,0.2665 -1.0693,0.2238 -2.1428,0.4291 -3.2323,0.5305 -0.383,0.036 -0.5661,-0.2288 -0.4174,-0.6227 0.079,-0.2087 0.076,-0.4107 0.06,-0.6244 -0.043,-0.5406 -0.3965,-0.8381 -0.814,-1.1046 -0.2772,-0.1769 -0.5779,-0.3294 -0.7845,-0.6034 -0.052,-0.07 -0.121,-0.14 -0.082,-0.2188 0.045,-0.091 0.1033,-0.1844 0.2344,-0.202 2.252,-0.305 4.5023,-0.6193 6.7552,-0.9185 0.8274,-0.1098 1.6439,-0.2724 2.4671,-0.4057 0.7837,-0.1291 1.5666,-0.3017 2.5174,-0.1651 z"
         id="path82"
         style="fill:#79db8f;stroke-width:0.08390503;fill-opacity:1" />
      <path
         inkscape:connector-curvature="0"
         class="st4"
         d="m 1322.1623,1651.6606 c -0.8383,-0.119 -1.5682,-0.4786 -2.2352,-0.9831 -0.2285,-0.1727 -0.4133,-0.3738 -0.5645,-0.6194 -0.1092,-0.1768 -0.1268,-0.233 0.1092,-0.2757 1.003,-0.1836 2.0017,-0.3864 3.0022,-0.58 1.3515,-0.2615 2.7048,-0.5188 4.0555,-0.7861 0.1839,-0.037 0.2175,-0.039 0.1713,0.1743 -0.1016,0.4693 -0.2814,0.9093 -0.488,1.3326 -0.3024,0.6202 -0.7602,1.0811 -1.4389,1.3334 -0.8274,0.3076 -1.8304,0.4987 -2.6116,0.404 z"
         id="path84"
         style="fill:#79db8f;stroke-width:0.08390503;fill-opacity:1" />
      <path
         inkscape:connector-curvature="0"
         class="st4"
         d="m 1330.5547,1646.9161 c 0,0 0,0 0,0 0,0 0,0 -8e-4,-9e-4 0,9e-4 0,9e-4 0,9e-4 z"
         id="path86"
         style="fill:#79db8f;stroke-width:0.08390503;fill-opacity:1" />
      <path
         inkscape:connector-curvature="0"
         class="st4"
         d="m 1334.2927,1652.1911 c -0.017,-0.7878 -0.3083,-1.5019 -0.8106,-2.1204 -0.2369,-0.2908 -0.4779,-0.5783 -0.7098,-0.8742 -0.6081,-0.776 -1.2356,-1.5337 -1.9681,-2.2 -0.076,-0.069 -0.1512,-0.092 -0.2453,-0.082 0.01,0.01 0.017,0.013 0.021,0.023 0,0 -0.01,0.018 -0.015,0.018 -0.1293,0 -0.1705,0.099 -0.2259,0.1944 -0.4545,0.7862 -0.8476,1.6059 -1.3415,2.3702 -0.4377,0.6764 -0.714,1.4139 -0.7695,2.2277 -0.023,0.3327 -8e-4,0.668 0.1,0.9705 0.2117,0.6353 0.5443,1.1876 1.097,1.6268 0.693,0.5498 1.4037,0.9487 2.3235,0.8733 0.672,-0.055 1.2558,-0.2397 1.7236,-0.7719 0.5763,-0.6529 0.8392,-1.4122 0.8207,-2.2545 z m -0.4511,0.5205 c -0.071,0.4743 -0.2889,0.8532 -0.5208,1.2211 -0.051,0.082 -0.6854,0.7249 -1.0693,0.7652 -0.3704,0.039 -0.756,0.018 -1.1272,-0.01 -0.1008,-0.01 -0.1949,-0.017 -0.2924,-0.044 -0.7492,-0.2104 -1.3515,-0.6286 -1.7035,-1.3225 -0.3561,-0.7032 -0.5485,-1.4307 -0.3242,-2.2495 0.1772,-0.6487 0.5678,-1.1692 0.8568,-1.7483 0.2915,-0.585 0.6753,-1.1239 0.9626,-1.7131 0.064,-0.1316 0.093,-0.1349 0.2033,-0.034 0.446,0.4107 0.8316,0.8775 1.1919,1.3586 0.2504,0.3344 0.5057,0.6663 0.7703,0.9873 0.2411,0.2916 0.4906,0.5682 0.6897,0.8967 0.3662,0.6026 0.4099,1.2513 0.3628,1.89 z"
         id="path88"
         style="fill:#79db8f;stroke-width:0.08390503;fill-opacity:1" />
      <path
         inkscape:connector-curvature="0"
         class="st4"
         d="m 1316.9233,1631.4471 c 1.596,0 2.1176,-0.6998 2.6561,-0.9043 l -5.523,-7.5958 c -0.6754,0.8348 -2.0051,1.7953 -2.0051,3.6391 0,2.6845 2.1815,4.861 4.872,4.861 z"
         id="path94"
         style="fill:#79db8f;stroke-width:0.08390503;fill-opacity:1" />
    </g>
  </g>
</svg>
